<mxfile host="app.diagrams.net" agent="Mozilla/5.0 (Macintosh; Intel Mac OS X 10_15_7) AppleWebKit/537.36 (KHTML, like Gecko) Chrome/131.0.0.0 Safari/537.36" version="24.8.8">
  <diagram name="Page-1" id="TkWE0fHTsVaH-eZPvvB0">
    <mxGraphModel dx="3098" dy="6048" grid="1" gridSize="10" guides="1" tooltips="1" connect="1" arrows="1" fold="1" page="1" pageScale="1" pageWidth="3000" pageHeight="4000" math="0" shadow="0">
      <root>
        <mxCell id="0" />
        <mxCell id="1" parent="0" />
        <mxCell id="MKvbwcuUu4q-yP4E661C-5" value="" style="shape=flexArrow;endArrow=classic;html=1;rounded=0;width=42;endWidth=87.27272727272727;endSize=21.577272727272724;" edge="1" parent="1">
          <mxGeometry width="50" height="50" relative="1" as="geometry">
            <mxPoint x="1490" y="-3310" as="sourcePoint" />
            <mxPoint x="1490" y="-3160" as="targetPoint" />
          </mxGeometry>
        </mxCell>
        <mxCell id="MKvbwcuUu4q-yP4E661C-6" value="" style="shape=flexArrow;endArrow=classic;html=1;rounded=0;width=42;endWidth=87.27272727272727;endSize=21.577272727272724;" edge="1" parent="1">
          <mxGeometry width="50" height="50" relative="1" as="geometry">
            <mxPoint x="1850" y="-3310" as="sourcePoint" />
            <mxPoint x="1850" y="-3160" as="targetPoint" />
          </mxGeometry>
        </mxCell>
        <mxCell id="MKvbwcuUu4q-yP4E661C-7" value="" style="shape=flexArrow;endArrow=classic;html=1;rounded=0;width=42;endWidth=87.27272727272727;endSize=21.577272727272724;" edge="1" parent="1">
          <mxGeometry width="50" height="50" relative="1" as="geometry">
            <mxPoint x="1100" y="-3300" as="sourcePoint" />
            <mxPoint x="1100" y="-3150" as="targetPoint" />
          </mxGeometry>
        </mxCell>
        <mxCell id="MKvbwcuUu4q-yP4E661C-10" value="&lt;font style=&quot;font-size: 26px;&quot;&gt;HTTP requests&lt;/font&gt;" style="rounded=0;whiteSpace=wrap;html=1;sketch=1;curveFitting=1;jiggle=2;" vertex="1" parent="1">
          <mxGeometry x="990" y="-3520" width="980" height="140" as="geometry" />
        </mxCell>
        <mxCell id="MKvbwcuUu4q-yP4E661C-13" value="&lt;font style=&quot;font-size: 26px;&quot;&gt;AuthController&lt;/font&gt;" style="rounded=1;whiteSpace=wrap;html=1;sketch=1;curveFitting=1;jiggle=2;fillColor=#fff2cc;strokeColor=#d6b656;" vertex="1" parent="1">
          <mxGeometry x="1000" y="-3050" width="250" height="130" as="geometry" />
        </mxCell>
        <mxCell id="MKvbwcuUu4q-yP4E661C-14" value="&lt;font style=&quot;font-size: 26px;&quot;&gt;AdminController&lt;/font&gt;" style="rounded=1;whiteSpace=wrap;html=1;sketch=1;curveFitting=1;jiggle=2;fillColor=#fff2cc;strokeColor=#d6b656;" vertex="1" parent="1">
          <mxGeometry x="1380" y="-3050" width="250" height="130" as="geometry" />
        </mxCell>
        <mxCell id="MKvbwcuUu4q-yP4E661C-15" value="&lt;font&gt;ProfileController&lt;/font&gt;" style="rounded=1;whiteSpace=wrap;html=1;sketch=1;curveFitting=1;jiggle=2;fillColor=#fff2cc;strokeColor=#d6b656;fontSize=26;" vertex="1" parent="1">
          <mxGeometry x="1760" y="-3050" width="250" height="130" as="geometry" />
        </mxCell>
        <mxCell id="MKvbwcuUu4q-yP4E661C-16" value="&lt;font style=&quot;font-size: 26px;&quot;&gt;AuthServioce&lt;/font&gt;" style="rounded=0;whiteSpace=wrap;html=1;sketch=1;curveFitting=1;jiggle=2;fillColor=#dae8fc;strokeColor=#6c8ebf;" vertex="1" parent="1">
          <mxGeometry x="1660" y="-2460" width="340" height="140" as="geometry" />
        </mxCell>
        <mxCell id="MKvbwcuUu4q-yP4E661C-17" value="&lt;font style=&quot;font-size: 26px;&quot;&gt;DbContext&lt;/font&gt;" style="shape=cylinder3;whiteSpace=wrap;html=1;boundedLbl=1;backgroundOutline=1;size=15;" vertex="1" parent="1">
          <mxGeometry x="980" y="-2490" width="450" height="185" as="geometry" />
        </mxCell>
        <mxCell id="MKvbwcuUu4q-yP4E661C-18" value="" style="rounded=0;whiteSpace=wrap;html=1;" vertex="1" parent="1">
          <mxGeometry x="1005" y="-2860" width="240" height="50" as="geometry" />
        </mxCell>
        <mxCell id="MKvbwcuUu4q-yP4E661C-20" value="&lt;font style=&quot;font-size: 45px;&quot;&gt;&lt;b&gt;Backend architecture&lt;/b&gt;&lt;/font&gt;" style="shape=hexagon;perimeter=hexagonPerimeter2;whiteSpace=wrap;html=1;fixedSize=1;" vertex="1" parent="1">
          <mxGeometry x="990" y="-3900" width="980" height="130" as="geometry" />
        </mxCell>
        <mxCell id="MKvbwcuUu4q-yP4E661C-21" value="&lt;font style=&quot;font-size: 31px;&quot;&gt;.NET 7&lt;/font&gt;" style="rounded=0;whiteSpace=wrap;html=1;sketch=1;curveFitting=1;jiggle=2;" vertex="1" parent="1">
          <mxGeometry x="990" y="-3650" width="150" height="90" as="geometry" />
        </mxCell>
      </root>
    </mxGraphModel>
  </diagram>
</mxfile>
